<?xml version="1.0" standalone="no"?>
<!DOCTYPE svg PUBLIC "-//W3C//DTD SVG 20010904//EN"
 "http://www.w3.org/TR/2001/REC-SVG-20010904/DTD/svg10.dtd">
<svg version="1.0" xmlns="http://www.w3.org/2000/svg"
 width="640.000000pt" height="360.000000pt" viewBox="0 0 640.000000 360.000000"
 preserveAspectRatio="xMidYMid meet">

<g transform="translate(0.000000,360.000000) scale(0.100000,-0.100000)"
fill="#000000" stroke="none">
<path d="M940 2986 c-14 -9 -33 -15 -44 -16 -10 0 -46 -28 -80 -63 -69 -70
-129 -181 -141 -262 -13 -82 -6 -354 10 -405 98 -312 103 -326 122 -365 50
-106 121 -197 175 -225 49 -26 64 -25 97 8 l28 27 5 205 c5 179 9 216 32 296
49 175 100 232 288 322 67 33 131 68 140 79 10 11 21 41 24 67 l7 48 -64 60
c-77 72 -187 148 -283 196 -66 33 -79 36 -181 39 -85 3 -116 0 -135 -11z m272
-54 c20 -12 41 -22 47 -22 19 0 181 -114 244 -172 57 -51 59 -54 52 -91 -7
-35 -13 -41 -69 -67 -209 -99 -246 -119 -246 -136 0 -8 -5 -14 -11 -14 -30 0
-90 -103 -124 -210 -25 -77 -35 -159 -44 -355 -5 -93 -9 -171 -10 -172 0 -2
-12 -3 -25 -3 -25 0 -96 74 -130 135 -9 17 -25 44 -34 60 -18 29 -27 52 -71
180 -12 33 -26 68 -31 77 -5 9 -13 36 -16 60 -4 24 -13 56 -21 72 -22 43 -15
390 9 426 9 14 19 36 23 50 5 14 18 39 31 56 13 17 24 35 24 39 0 13 52 65 65
65 6 0 17 6 23 12 26 26 88 37 183 34 78 -2 103 -7 131 -24z"/>
<path d="M3536 2864 c-32 -31 -6 -74 44 -74 30 0 60 22 60 45 0 23 -30 45 -60
45 -16 0 -36 -7 -44 -16z"/>
<path d="M5133 2873 l-53 -4 0 -235 c0 -199 2 -234 15 -234 8 0 20 10 26 23 6
12 13 24 15 26 1 2 17 -7 34 -19 68 -48 164 -30 203 38 24 40 33 134 18 188
-21 80 -104 118 -162 75 l-29 -22 0 86 c0 47 -3 84 -7 83 -5 -1 -32 -3 -60 -5z
m128 -190 c9 -11 14 -43 14 -97 0 -100 -10 -139 -33 -134 -27 5 -42 48 -42
125 0 104 26 149 61 106z"/>
<path d="M6068 2873 l-58 -4 0 -80 0 -80 -29 22 c-38 28 -96 21 -128 -16 -41
-47 -54 -142 -32 -231 21 -83 103 -120 163 -73 21 17 26 18 26 5 0 -13 12 -16
60 -16 l60 0 0 240 c0 132 -1 239 -2 238 -2 -1 -29 -3 -60 -5z m-68 -193 c6
-12 9 -63 8 -121 -3 -86 -6 -104 -21 -113 -15 -9 -21 -7 -33 8 -18 25 -20 216
-2 234 18 18 36 15 48 -8z"/>
<path d="M6226 2864 c-32 -31 -6 -74 44 -74 30 0 60 22 60 45 0 23 -30 45 -60
45 -16 0 -36 -7 -44 -16z"/>
<path d="M2370 2635 l0 -235 133 0 c72 0 148 5 168 10 106 29 119 172 20 216
l-41 18 31 15 c41 19 64 68 55 115 -15 77 -63 96 -243 96 l-123 0 0 -235z
m224 173 c9 -12 16 -41 16 -63 0 -56 -22 -85 -66 -85 l-34 0 0 85 0 85 34 0
c25 0 39 -7 50 -22z m5 -214 c14 -18 21 -41 21 -70 0 -55 -26 -84 -75 -84
l-35 0 0 90 0 90 34 0 c25 0 40 -7 55 -26z"/>
<path d="M4731 2653 c-35 -120 -66 -226 -69 -235 -3 -14 2 -18 20 -18 20 0 27
8 39 48 l15 47 71 3 72 3 13 -48 14 -48 67 -3 68 -3 -7 28 c-4 15 -33 120 -64
233 l-57 205 -60 3 -59 3 -63 -218z m81 -101 c-30 -2 -56 -2 -58 0 -3 4 38
145 52 178 4 9 18 -25 33 -80 l27 -95 -54 -3z"/>
<path d="M4300 2820 c-11 -11 -20 -31 -20 -45 0 -23 -4 -25 -42 -25 -128 -1
-201 -109 -125 -185 l32 -32 -32 -22 c-41 -26 -52 -64 -28 -91 10 -11 25 -20
34 -20 11 -1 7 -7 -11 -21 -58 -43 -23 -85 79 -95 163 -17 272 39 249 129 -11
46 -49 61 -161 67 -80 4 -100 8 -100 20 0 11 17 16 70 21 106 8 165 48 165
110 0 31 -41 85 -70 94 -11 4 -20 15 -20 26 0 23 8 24 32 2 39 -35 78 28 42
68 -22 25 -69 24 -94 -1z m-30 -126 c13 -33 13 -100 0 -125 -6 -10 -19 -19
-30 -19 -26 0 -40 29 -40 85 0 25 5 55 10 66 15 28 49 24 60 -7z m56 -338 c31
-23 3 -40 -74 -44 -50 -3 -72 0 -87 12 -20 16 -20 16 -1 31 26 20 135 20 162
1z"/>
<path d="M2876 2731 c-86 -45 -121 -161 -76 -259 15 -34 29 -47 66 -64 55 -24
135 -21 178 7 32 21 55 83 35 96 -25 16 -39 9 -39 -19 0 -41 -26 -72 -60 -72
-37 0 -61 33 -68 95 l-5 45 93 0 93 0 -6 45 c-13 90 -53 134 -130 142 -29 3
-53 -2 -81 -16z m94 -30 c5 -11 10 -38 10 -60 0 -40 -1 -41 -35 -41 -33 0 -35
2 -35 34 0 72 36 112 60 67z"/>
<path d="M3188 2743 l-48 -4 0 -170 0 -169 59 0 59 0 4 125 c3 112 5 127 25
146 12 13 28 19 37 16 14 -5 16 -28 16 -147 l0 -140 61 0 60 0 -3 156 c-3 150
-4 157 -27 175 -40 32 -97 23 -148 -24 l-23 -20 0 31 c0 20 -5 31 -12 30 -7
-1 -34 -3 -60 -5z"/>
<path d="M3568 2743 l-48 -4 0 -170 0 -169 60 0 60 0 0 175 c0 134 -3 175 -12
173 -7 -1 -34 -3 -60 -5z"/>
<path d="M3768 2743 l-48 -4 0 -170 0 -169 59 0 59 0 4 125 c3 112 5 127 25
146 12 13 28 19 37 16 14 -5 16 -28 16 -147 l0 -140 61 0 60 0 -3 156 c-3 150
-4 157 -27 175 -40 32 -97 23 -148 -24 l-23 -20 0 31 c0 20 -5 31 -12 30 -7
-1 -34 -3 -60 -5z"/>
<path d="M5533 2739 c-58 -17 -87 -90 -40 -103 35 -9 37 -8 31 22 -4 19 0 34
11 45 33 33 105 14 105 -27 0 -31 -24 -50 -92 -76 -74 -27 -102 -61 -95 -114
3 -21 14 -48 25 -58 26 -26 89 -34 132 -16 29 12 39 12 60 1 28 -14 61 -16
109 -7 37 8 40 21 6 34 -24 9 -24 12 -27 136 -3 126 -3 127 -31 148 -32 23
-139 32 -194 15z m96 -275 c-15 -19 -45 -18 -53 2 -16 41 -6 82 27 110 l32 27
3 -62 c2 -38 -2 -68 -9 -77z"/>
<path d="M6258 2743 l-48 -4 0 -170 0 -169 60 0 60 0 0 175 c0 134 -3 175 -12
173 -7 -1 -34 -3 -60 -5z"/>
<path d="M1455 2447 c-47 -27 -101 -62 -110 -72 -48 -47 -86 -116 -113 -202
-43 -136 -55 -217 -58 -373 -1 -74 -2 -142 -3 -151 0 -8 -18 -25 -39 -37 -66
-37 -113 -20 -264 95 -96 73 -173 198 -233 380 -15 45 -39 102 -55 126 -24 38
-35 46 -70 52 -41 7 -122 -8 -147 -27 -6 -5 -21 -29 -32 -53 -62 -133 18 -366
180 -527 44 -43 83 -78 88 -78 5 0 29 -16 53 -36 50 -43 144 -104 158 -104 6
0 29 -9 53 -20 23 -11 62 -26 86 -33 69 -20 61 -34 -16 -29 -53 4 -85 13 -155
47 -118 58 -161 91 -308 241 -69 70 -141 137 -162 150 -20 13 -39 28 -43 34
-8 13 -76 13 -112 -1 -74 -28 -101 -79 -109 -207 -8 -111 6 -169 73 -309 40
-85 162 -217 233 -253 25 -12 54 -30 65 -40 58 -50 254 -87 347 -65 70 17 154
49 203 79 22 14 81 46 131 71 50 25 102 57 115 71 12 13 30 24 40 24 10 0 31
11 47 25 17 14 34 25 40 25 5 0 20 8 33 18 13 11 67 41 119 69 52 28 129 69
170 92 101 57 143 66 226 52 36 -7 78 -20 92 -29 19 -12 47 -17 104 -17 76 0
78 1 115 38 37 36 38 39 38 110 -1 59 -6 83 -32 137 -35 74 -72 115 -158 174
l-60 41 -111 0 -112 0 -53 -45 c-77 -65 -107 -102 -161 -198 -26 -47 -48 -87
-48 -90 0 -13 -104 -132 -119 -137 -10 -3 -26 -14 -36 -25 -10 -11 -25 -20
-34 -20 -9 0 9 25 46 63 50 51 64 74 82 129 11 37 21 74 21 82 0 23 56 185 79
230 45 87 118 134 218 142 93 8 128 20 158 55 30 36 32 81 8 126 -29 52 -138
158 -194 187 -46 23 -61 26 -152 25 -57 -1 -111 -6 -122 -12z m235 -47 c14
-11 32 -20 40 -20 17 0 132 -113 149 -147 15 -30 14 -78 -3 -92 -8 -7 -57 -19
-108 -27 -109 -17 -127 -24 -191 -72 -47 -36 -107 -131 -107 -170 0 -9 -7 -30
-16 -47 -9 -16 -22 -57 -29 -90 -35 -155 -40 -166 -113 -236 -58 -56 -75 -67
-115 -73 -26 -4 -49 -11 -52 -17 -8 -12 -110 -12 -133 0 -9 5 -44 18 -77 29
-104 34 -129 46 -183 85 -29 20 -54 37 -57 37 -11 0 -131 104 -184 159 -161
167 -215 438 -98 496 16 8 47 15 67 15 31 0 42 -6 63 -34 14 -18 29 -46 33
-62 4 -16 10 -33 14 -39 4 -5 15 -36 24 -68 9 -32 26 -74 36 -93 11 -19 20
-39 20 -43 0 -21 107 -165 144 -195 83 -66 193 -136 215 -136 12 0 31 -5 41
-10 13 -7 21 -7 25 0 3 5 13 10 21 10 8 0 30 10 49 23 40 26 75 101 56 120
-13 13 -16 227 -3 227 5 0 14 41 20 91 6 50 15 96 21 102 5 7 16 38 24 69 21
82 81 154 167 201 37 21 59 25 130 26 70 0 89 -3 110 -19z m338 -553 c93 -59
168 -179 166 -266 -1 -38 -6 -49 -39 -79 -35 -32 -41 -34 -88 -29 -27 4 -57
13 -66 21 -9 7 -32 17 -51 20 -19 4 -56 12 -82 18 -36 9 -57 9 -90 -1 -50 -15
-155 -65 -214 -103 -22 -14 -73 -42 -114 -63 -73 -37 -109 -59 -163 -102 -16
-13 -39 -23 -53 -23 -14 0 -36 -14 -55 -35 -18 -19 -38 -35 -45 -35 -14 0
-119 -55 -144 -75 -8 -7 -40 -23 -70 -38 -149 -68 -187 -76 -300 -61 -94 13
-164 36 -195 64 -11 10 -38 27 -60 38 -69 34 -165 136 -208 220 -60 116 -81
206 -72 317 6 78 10 94 34 122 21 25 38 34 74 39 45 6 49 5 102 -41 31 -26
106 -98 167 -161 104 -105 187 -173 248 -200 14 -7 54 -26 90 -45 l65 -33 160
1 c130 0 166 3 190 16 17 9 35 17 42 17 39 0 187 100 226 152 26 34 97 154
132 222 26 50 149 164 183 169 15 2 59 2 97 0 60 -5 79 -11 133 -46z"/>
<path d="M2340 1910 l0 -30 70 0 70 0 0 -255 0 -255 90 0 90 0 0 255 0 255 70
0 70 0 0 30 0 30 -230 0 -230 0 0 -30z"/>
<path d="M5906 1895 c-27 -13 -57 -26 -67 -28 -14 -4 -19 -14 -19 -41 0 -32
-3 -36 -25 -36 -18 0 -25 -5 -25 -20 0 -18 -2 -17 -25 5 -37 37 -88 30 -127
-19 -17 -21 -18 -21 -18 13 0 32 -1 33 -31 27 -17 -3 -51 -6 -75 -6 l-44 0 0
-210 0 -210 75 0 75 0 0 146 c0 114 4 153 16 180 29 61 66 23 39 -38 -6 -16
-1 -18 43 -18 47 0 51 2 61 31 6 18 11 40 11 50 0 14 7 19 25 19 l25 0 0 -154
c0 -149 1 -156 24 -183 22 -25 30 -28 90 -28 59 0 68 3 93 28 l28 29 -40 -4
-40 -3 -3 158 -3 157 36 0 c31 0 35 3 35 25 0 22 -4 25 -35 25 l-35 0 0 65 c0
36 -3 65 -7 64 -5 0 -30 -11 -57 -24z"/>
<path d="M3295 1801 c-48 -12 -71 -28 -85 -60 -19 -47 -7 -78 33 -83 l34 -4
-5 42 c-4 35 -1 44 19 58 51 36 119 10 119 -46 0 -33 -20 -50 -112 -91 -110
-50 -140 -106 -103 -193 26 -64 148 -86 197 -36 20 20 21 20 52 1 32 -20 73
-23 139 -13 44 8 48 34 7 44 l-25 6 -5 163 c-5 156 -6 164 -28 182 -44 35
-155 49 -237 30z m100 -357 c-34 -52 -70 -12 -62 69 4 42 10 55 38 78 l34 28
3 -76 c2 -55 -1 -81 -13 -99z"/>
<path d="M2888 1793 l-58 -4 0 -209 0 -210 75 0 75 0 0 146 c0 114 4 153 16
180 29 61 66 23 39 -38 -6 -16 -1 -18 44 -18 50 0 50 0 62 41 31 101 -66 159
-137 82 l-24 -26 0 32 c0 24 -4 31 -17 29 -10 -1 -44 -3 -75 -5z"/>
<path d="M3683 1793 l-53 -4 0 -210 0 -209 75 0 75 0 0 139 c0 127 2 141 23
172 16 23 31 34 47 34 l25 0 3 -172 2 -173 76 0 75 0 -3 189 c-3 169 -5 191
-22 210 -40 44 -134 36 -196 -15 l-30 -26 0 36 c0 31 -3 36 -22 34 -13 -1 -47
-3 -75 -5z"/>
<path d="M4210 1791 c-51 -16 -90 -42 -105 -71 -37 -72 -4 -137 97 -190 36
-19 75 -44 87 -54 40 -36 20 -76 -37 -76 -42 0 -92 46 -92 84 0 22 -5 26 -27
26 -43 0 -56 -13 -49 -47 14 -62 88 -103 186 -103 104 0 169 44 177 122 7 65
-23 103 -126 158 -47 25 -89 53 -95 63 -26 42 50 75 99 43 13 -8 26 -29 30
-47 6 -25 11 -30 28 -25 12 3 28 6 36 6 19 0 5 49 -21 78 -35 37 -124 52 -188
33z"/>
<path d="M4568 1793 l-58 -4 0 -279 0 -280 75 0 75 0 0 84 0 84 38 -20 c52
-27 114 -20 153 18 91 87 71 333 -31 388 -44 24 -96 16 -134 -19 l-26 -24 0
29 c0 23 -4 30 -17 28 -10 -1 -44 -3 -75 -5z m163 -69 c22 -26 25 -220 5 -268
-20 -49 -46 -45 -64 9 -16 48 -12 219 6 253 15 26 34 28 53 6z"/>
<path d="M5091 1789 c-91 -28 -126 -85 -126 -209 0 -72 4 -92 25 -129 35 -63
84 -86 180 -86 96 0 145 23 180 86 21 37 25 57 25 129 0 72 -4 92 -25 129 -16
28 -39 52 -63 64 -44 23 -147 31 -196 16z m111 -51 c9 -16 13 -66 13 -158 0
-143 -9 -180 -45 -180 -36 0 -45 37 -45 180 0 143 9 180 45 180 11 0 25 -10
32 -22z"/>
</g>
</svg>
